<svg xmlns="http://www.w3.org/2000/svg" xmlns:v="https://svgstorm.com"
viewBox = "0 0 512 512"
width="512"
height="512">
<g fill="None" fill-opacity="0.0" stroke="#000000" stroke-opacity="0.00" stroke-width="0.3"><path d="
M 0.00 512.00 
L 512.00 512.00
L 512.00 0.00
L 0.00 0.00
L 0.00 512.00
M 266.00 44.00 
C 270.00 52.36 262.60 55.16 256.77 59.77 C 250.94 64.38 245.95 68.16 240.00 72.00
C 242.19 80.85 248.37 88.47 250.77 97.23 C 253.17 105.99 260.91 115.47 260.00 125.00
C 266.44 121.37 277.35 126.56 285.00 125.00 C 292.65 123.44 302.81 125.70 311.00 125.00 C 319.19 124.30 328.59 125.30 337.00 125.00 C 345.41 124.70 354.53 125.11 363.00 125.00 C 371.47 124.89 380.62 124.98 389.00 125.00 C 397.38 125.02 405.80 124.83 414.00 125.00 C 422.20 125.17 432.15 124.58 440.00 125.00 C 447.85 125.42 458.12 123.49 464.68 126.32 C 471.24 129.16 474.18 133.64 478.30 138.70 C 482.43 143.75 485.34 149.79 487.00 156.00
C 487.61 158.28 487.83 160.56 488.00 163.00
C 490.40 198.25 488.15 234.66 488.00 270.00 C 487.85 305.34 490.79 341.79 488.00 377.00
C 487.79 379.60 486.97 381.95 486.00 384.00
C 485.09 386.72 484.36 388.62 483.00 391.00
C 479.59 396.98 476.56 400.94 471.00 405.00
C 466.55 408.25 461.85 412.14 456.00 413.00
C 454.73 413.19 453.28 413.00 452.00 413.00
C 435.58 415.24 417.16 413.36 400.00 414.00 C 382.84 414.64 363.97 413.09 347.00 414.00 C 330.03 414.91 310.31 412.21 294.00 414.00 C 277.69 415.79 258.01 408.33 245.00 418.00
C 242.10 420.16 239.00 422.75 236.00 425.00
C 234.25 426.77 232.07 427.82 230.00 429.00
C 224.37 433.10 219.07 438.23 213.00 442.00
C 210.08 444.20 207.05 446.78 204.00 449.00
C 201.08 451.13 197.69 453.04 195.00 455.00
C 188.09 460.04 179.47 470.63 171.00 473.00
C 158.40 475.48 161.00 459.67 161.00 452.00
C 161.00 439.33 161.00 426.67 161.00 414.00
C 137.49 416.13 104.51 412.06 99.02 383.98 C 93.54 355.89 98.33 323.62 97.00 294.00 C 95.67 264.38 98.00 231.88 97.00 202.00
C 99.52 201.44 103.30 203.19 105.00 201.00
C 99.61 201.00 95.75 202.22 91.00 200.00
C 89.73 199.41 88.96 198.75 88.00 198.00
C 80.60 192.22 78.31 182.29 75.07 173.93 C 71.84 165.56 66.06 156.78 64.00 148.00
C 63.89 147.53 64.00 147.00 64.00 147.00
C 59.46 148.06 52.98 149.39 48.33 149.33 C 43.68 149.27 36.28 153.46 32.00 152.00
C 36.01 160.39 38.88 167.98 41.98 177.02 C 45.07 186.07 55.82 186.95 57.00 197.00 C 58.18 207.05 68.54 208.63 71.75 218.25 C 74.96 227.87 62.51 228.43 53.93 232.93 C 45.34 237.42 41.40 222.79 42.01 213.99 C 42.62 205.19 29.28 195.81 40.00 188.00
C 36.68 170.79 11.84 146.25 33.00 133.00
C 41.94 126.36 50.01 118.86 59.25 112.25 C 68.48 105.63 76.70 99.07 85.75 91.75 C 94.80 84.43 104.08 79.13 113.23 71.23 C 122.38 63.33 132.15 56.30 145.01 56.01 C 157.86 55.72 174.43 50.66 187.00 50.00 C 199.57 49.34 216.45 43.50 228.00 44.00 C 239.55 44.50 260.18 31.82 266.00 44.00 Z"/>
</g>
<g fill="None" fill-opacity="0.0" stroke="#414243" stroke-opacity="0.98" stroke-width="0.3"><path d="
M 33.00 133.00 
C 37.55 131.18 44.20 129.41 50.03 127.02 C 55.85 124.64 59.97 121.17 65.77 119.42 C 71.57 117.68 77.01 114.53 82.77 112.43 C 88.53 110.33 92.58 107.36 98.30 105.29 C 104.03 103.21 109.82 101.13 115.30 98.29 C 120.77 95.46 124.85 95.99 130.75 89.75 C 136.65 83.51 144.15 79.32 154.00 81.00 C 163.85 82.68 153.89 94.48 148.25 95.39 C 142.60 96.31 135.11 103.77 127.00 98.00
C 122.18 102.03 113.92 104.49 107.75 107.76 C 101.58 111.03 94.31 111.84 87.75 115.19 C 81.20 118.55 74.60 121.26 68.08 124.13 C 61.56 127.00 54.64 129.24 48.25 132.59 C 41.85 135.94 31.67 135.82 30.00 145.00
C 34.65 140.50 45.71 144.29 52.00 142.00 C 58.29 139.71 67.07 139.44 74.07 138.07 C 81.08 136.70 89.84 136.41 97.00 135.00 C 104.17 133.59 112.44 132.74 119.67 131.67 C 126.90 130.60 135.03 129.08 142.02 128.02 C 149.02 126.97 157.30 127.02 162.70 122.70 C 168.09 118.38 172.24 115.45 177.25 111.25 C 182.25 107.05 187.34 104.30 192.23 100.23 C 197.12 96.16 201.83 92.64 206.75 88.75 C 211.67 84.87 216.73 81.44 221.70 77.70 C 226.66 73.95 231.24 69.90 236.23 66.23 C 241.22 62.56 246.14 58.74 251.23 55.23 C 256.32 51.72 261.09 46.73 266.00 44.00
C 260.18 31.82 239.55 44.50 228.00 44.00 C 216.45 43.50 199.57 49.34 187.00 50.00 C 174.43 50.66 157.86 55.72 145.01 56.01 C 132.15 56.30 122.38 63.33 113.23 71.23 C 104.08 79.13 94.80 84.43 85.75 91.75 C 76.70 99.07 68.48 105.63 59.25 112.25 C 50.01 118.86 41.94 126.36 33.00 133.00 Z"/>
</g>
<g fill="None" fill-opacity="0.0" stroke="#18191A" stroke-opacity="0.97" stroke-width="0.3"><path d="
M 30.00 145.00 
C 29.78 148.37 30.48 148.81 32.00 152.00
C 36.28 153.46 43.68 149.27 48.33 149.33 C 52.98 149.39 59.46 148.06 64.00 147.00
C 72.82 141.03 88.43 144.36 99.02 141.02 C 109.62 137.69 125.07 138.29 136.00 136.00 C 146.93 133.71 159.88 133.59 168.25 126.25 C 176.62 118.91 184.14 115.01 192.25 108.25 C 200.35 101.48 207.92 96.28 216.08 90.08 C 224.24 83.88 231.49 77.49 240.00 72.00
C 245.95 68.16 250.94 64.38 256.77 59.77 C 262.60 55.16 270.00 52.36 266.00 44.00
C 261.09 46.73 256.32 51.72 251.23 55.23 C 246.14 58.74 241.22 62.56 236.23 66.23 C 231.24 69.90 226.66 73.95 221.70 77.70 C 216.73 81.44 211.67 84.87 206.75 88.75 C 201.83 92.64 197.12 96.16 192.23 100.23 C 187.34 104.30 182.25 107.05 177.25 111.25 C 172.24 115.45 168.09 118.38 162.70 122.70 C 157.30 127.02 149.02 126.97 142.02 128.02 C 135.03 129.08 126.90 130.60 119.67 131.67 C 112.44 132.74 104.17 133.59 97.00 135.00 C 89.84 136.41 81.08 136.70 74.07 138.07 C 67.07 139.44 58.29 139.71 52.00 142.00 C 45.71 144.29 34.65 140.50 30.00 145.00 Z"/>
</g>
<g fill="None" fill-opacity="0.0" stroke="#272A2B" stroke-opacity="0.99" stroke-width="0.3"><path d="
M 64.00 147.00 
C 64.00 147.00 63.89 147.53 64.00 148.00
C 65.15 149.43 66.28 151.14 67.00 153.00
C 89.54 151.59 113.86 142.75 136.22 142.22 C 158.58 141.69 175.43 131.29 191.25 117.25 C 207.06 103.21 222.17 96.32 237.00 82.00
C 243.43 94.37 261.11 120.76 247.70 133.70 C 234.29 146.63 222.14 154.95 210.08 169.08 C 198.03 183.22 189.26 201.73 167.93 198.07 C 146.60 194.42 119.86 196.69 98.00 198.00
C 96.80 198.12 92.03 200.14 91.00 200.00
C 95.75 202.22 99.61 201.00 105.00 201.00
C 112.90 201.00 120.06 200.00 128.00 200.00
C 131.08 199.70 135.25 199.00 139.00 199.00
C 143.41 199.00 148.34 199.65 152.00 200.00
C 165.75 200.00 186.09 205.93 196.75 195.75 C 207.41 185.57 209.99 175.39 222.00 167.00
C 222.23 166.84 222.00 166.00 222.00 166.00
C 224.21 161.48 230.31 157.16 234.00 154.00
C 242.52 146.72 258.88 136.70 260.00 125.00
C 260.91 115.47 253.17 105.99 250.77 97.23 C 248.37 88.47 242.19 80.85 240.00 72.00
C 231.49 77.49 224.24 83.88 216.08 90.08 C 207.92 96.28 200.35 101.48 192.25 108.25 C 184.14 115.01 176.62 118.91 168.25 126.25 C 159.88 133.59 146.93 133.71 136.00 136.00 C 125.07 138.29 109.62 137.69 99.02 141.02 C 88.43 144.36 72.82 141.03 64.00 147.00 Z"/>
</g>
<g fill="None" fill-opacity="0.0" stroke="#EFB433" stroke-opacity="0.95" stroke-width="0.3"><path d="
M 33.00 133.00 
C 11.84 146.25 36.68 170.79 40.00 188.00
C 29.28 195.81 42.62 205.19 42.01 213.99 C 41.40 222.79 45.34 237.42 53.93 232.93 C 62.51 228.43 74.96 227.87 71.75 218.25 C 68.54 208.63 58.18 207.05 57.00 197.00 C 55.82 186.95 45.07 186.07 41.98 177.02 C 38.88 167.98 36.01 160.39 32.00 152.00
C 30.48 148.81 29.78 148.37 30.00 145.00
C 31.67 135.82 41.85 135.94 48.25 132.59 C 54.64 129.24 61.56 127.00 68.08 124.13 C 74.60 121.26 81.20 118.55 87.75 115.19 C 94.31 111.84 101.58 111.03 107.75 107.76 C 113.92 104.49 122.18 102.03 127.00 98.00
C 135.11 103.77 142.60 96.31 148.25 95.39 C 153.89 94.48 163.85 82.68 154.00 81.00 C 144.15 79.32 136.65 83.51 130.75 89.75 C 124.85 95.99 120.77 95.46 115.30 98.29 C 109.82 101.13 104.03 103.21 98.30 105.29 C 92.58 107.36 88.53 110.33 82.77 112.43 C 77.01 114.53 71.57 117.68 65.77 119.42 C 59.97 121.17 55.85 124.64 50.03 127.02 C 44.20 129.41 37.55 131.18 33.00 133.00 Z"/>
</g>
<g fill="None" fill-opacity="0.0" stroke="#414243" stroke-opacity="1.00" stroke-width="0.3"><path d="
M 64.00 148.00 
C 66.06 156.78 71.84 165.56 75.07 173.93 C 78.31 182.29 80.60 192.22 88.00 198.00
C 90.77 198.83 95.09 198.00 98.00 198.00
C 119.86 196.69 146.60 194.42 167.93 198.07 C 189.26 201.73 198.03 183.22 210.08 169.08 C 222.14 154.95 234.29 146.63 247.70 133.70 C 261.11 120.76 243.43 94.37 237.00 82.00
C 222.17 96.32 207.06 103.21 191.25 117.25 C 175.43 131.29 158.58 141.69 136.22 142.22 C 113.86 142.75 89.54 151.59 67.00 153.00
C 66.28 151.14 65.15 149.43 64.00 148.00
M 93.00 160.00 
C 97.64 161.88 96.38 173.21 90.33 170.67 C 84.27 168.12 87.07 157.60 93.00 160.00
M 98.00 175.00 
C 103.91 175.71 106.84 193.04 99.97 191.97 C 93.11 190.91 91.02 174.16 98.00 175.00 Z"/>
</g>
<g fill="None" fill-opacity="0.0" stroke="#525DEF" stroke-opacity="0.99" stroke-width="0.3"><path d="
M 234.00 154.00 
C 230.38 157.62 225.90 161.85 223.00 166.00
C 245.49 166.00 268.57 165.38 291.00 166.00 C 313.43 166.62 336.79 164.34 359.00 166.00 C 381.21 167.66 406.06 161.81 427.00 167.00
C 447.06 167.40 447.46 191.37 447.00 208.00 C 446.54 224.63 446.79 251.49 447.00 270.00 C 447.21 288.51 445.98 313.04 447.00 332.00 C 448.02 350.96 445.25 367.51 425.00 372.00
C 404.66 376.51 381.48 371.84 360.00 373.00 C 338.52 374.16 315.69 372.96 294.00 373.00 C 272.31 373.04 249.70 374.06 228.00 373.00 C 206.30 371.94 183.50 375.87 162.00 373.00
C 151.35 371.58 140.42 363.19 139.00 352.00
C 138.94 351.51 139.00 350.50 139.00 350.00
C 134.58 339.61 139.20 325.87 138.00 314.00 C 136.80 302.13 138.34 288.28 138.00 276.00 C 137.66 263.72 137.71 250.42 138.00 238.00 C 138.29 225.58 136.88 212.40 138.00 200.00
C 134.67 200.00 131.33 200.00 128.00 200.00
C 120.06 200.00 112.90 201.00 105.00 201.00
C 103.30 203.19 99.52 201.44 97.00 202.00
C 98.00 231.88 95.67 264.38 97.00 294.00 C 98.33 323.62 93.54 355.89 99.02 383.98 C 104.51 412.06 137.49 416.13 161.00 414.00
C 161.00 426.67 161.00 439.33 161.00 452.00
C 161.00 451.96 162.00 452.00 162.00 452.00
C 174.59 443.95 185.80 432.44 198.70 424.70 C 211.60 416.95 222.25 402.65 237.00 399.00
C 256.85 394.08 279.97 399.60 301.00 398.00 C 322.03 396.40 344.81 398.82 366.00 398.00 C 387.19 397.18 409.62 398.13 430.00 399.00
C 452.07 397.80 469.37 378.16 470.00 357.00
C 471.02 322.96 470.12 289.10 470.00 255.00 C 469.88 220.90 471.30 186.11 470.00 152.00
C 469.71 144.32 467.82 137.79 465.00 131.00
C 477.48 133.02 481.25 147.31 487.00 156.00
C 485.34 149.79 482.43 143.75 478.30 138.70 C 474.18 133.64 471.24 129.16 464.68 126.32 C 458.12 123.49 447.85 125.42 440.00 125.00 C 432.15 124.58 422.20 125.17 414.00 125.00 C 405.80 124.83 397.38 125.02 389.00 125.00 C 380.62 124.98 371.47 124.89 363.00 125.00 C 354.53 125.11 345.41 124.70 337.00 125.00 C 328.59 125.30 319.19 124.30 311.00 125.00 C 302.81 125.70 292.65 123.44 285.00 125.00 C 277.35 126.56 266.44 121.37 260.00 125.00
C 258.88 136.70 242.52 146.72 234.00 154.00
M 321.00 153.00 
C 317.53 154.05 314.41 154.04 311.00 153.00
C 298.46 149.19 305.30 138.11 316.00 138.00 C 326.70 137.90 332.92 149.38 321.00 153.00
M 424.00 153.00 
C 413.77 156.24 399.30 154.01 388.00 154.00 C 376.70 153.99 361.30 156.13 351.00 153.00
C 340.59 149.84 343.23 137.91 354.00 138.00 C 364.78 138.10 375.25 138.79 386.00 138.00 C 396.75 137.21 407.22 140.21 418.00 138.00 C 428.78 135.79 435.80 149.27 424.00 153.00
M 126.00 250.00 
C 127.05 253.45 127.08 256.60 126.00 260.00
C 123.59 267.61 116.44 269.20 111.00 263.00
C 111.20 258.38 111.20 251.62 111.00 247.00
C 114.96 241.11 125.78 242.15 126.00 250.00
M 126.00 288.00 
C 128.56 294.94 126.86 305.16 127.00 313.00 C 127.14 320.84 128.20 331.05 126.00 338.00
C 122.00 350.65 109.78 341.72 111.00 331.00 C 112.22 320.28 112.67 306.68 111.00 296.00 C 109.33 285.32 121.12 274.78 126.00 288.00 Z"/>
</g>
<g fill="None" fill-opacity="0.0" stroke="#313EDF" stroke-opacity="1.00" stroke-width="0.3"><path d="
M 470.00 152.00 
C 474.62 184.31 471.03 220.67 471.00 254.00 C 470.97 287.34 474.59 324.67 470.00 357.00
C 469.37 378.16 452.07 397.80 430.00 399.00
C 398.07 400.73 365.91 396.86 334.00 399.00 C 302.09 401.14 268.73 395.07 237.00 399.00
C 222.25 402.65 211.60 416.95 198.70 424.70 C 185.80 432.44 174.59 443.95 162.00 452.00
C 162.79 460.72 158.64 472.46 171.00 472.00
C 178.34 465.59 187.25 460.77 195.00 455.00
C 198.28 452.56 201.56 449.50 205.00 447.00
C 207.38 445.27 209.54 443.53 212.00 442.00
C 217.84 437.61 223.70 432.58 230.00 429.00
C 232.07 427.82 234.25 426.77 236.00 425.00
C 238.91 422.06 241.98 420.32 245.00 418.00
C 257.86 408.15 276.30 414.17 293.00 413.00 C 309.70 411.83 328.79 413.51 346.00 413.00 C 363.21 412.49 381.57 413.19 399.00 413.00 C 416.43 412.81 434.51 413.00 452.00 413.00
C 453.28 413.00 454.73 413.19 456.00 413.00
C 459.45 412.07 467.89 407.38 471.00 405.00
C 475.04 401.90 480.88 395.15 483.00 391.00
C 484.06 388.93 485.06 385.98 486.00 384.00
C 486.97 381.95 487.79 379.60 488.00 377.00
C 486.77 306.73 485.97 233.20 488.00 163.00
C 487.83 160.56 487.61 158.28 487.00 156.00
C 481.25 147.31 477.48 133.02 465.00 131.00
C 467.82 137.79 469.71 144.32 470.00 152.00 Z"/>
</g>
<g fill="None" fill-opacity="0.0" stroke="#808AF1" stroke-opacity="1.00" stroke-width="0.3"><path d="
M 311.00 153.00 
C 313.78 153.47 318.22 153.47 321.00 153.00
C 332.92 149.38 326.70 137.90 316.00 138.00 C 305.30 138.11 298.46 149.19 311.00 153.00 Z"/>
</g>
<g fill="None" fill-opacity="0.0" stroke="#808AF1" stroke-opacity="1.00" stroke-width="0.3"><path d="
M 351.00 153.00 
C 362.35 154.92 375.42 153.11 387.00 153.00 C 398.58 152.89 412.58 155.05 424.00 153.00
C 435.80 149.27 428.78 135.79 418.00 138.00 C 407.22 140.21 396.75 137.21 386.00 138.00 C 375.25 138.79 364.78 138.10 354.00 138.00 C 343.23 137.91 340.59 149.84 351.00 153.00 Z"/>
</g>
<g fill="None" fill-opacity="0.0" stroke="#3B47E6" stroke-opacity="1.00" stroke-width="0.3"><path d="
M 470.00 357.00 
C 474.59 324.67 470.97 287.34 471.00 254.00 C 471.03 220.67 474.62 184.31 470.00 152.00
C 471.30 186.11 469.88 220.90 470.00 255.00 C 470.12 289.10 471.02 322.96 470.00 357.00 Z"/>
</g>
<g fill="None" fill-opacity="0.0" stroke="#5E6BEF" stroke-opacity="1.00" stroke-width="0.3"><path d="
M 321.00 153.00 
C 318.22 153.47 313.78 153.47 311.00 153.00
C 314.41 154.04 317.53 154.05 321.00 153.00 Z"/>
</g>
<g fill="None" fill-opacity="0.0" stroke="#5E6BEF" stroke-opacity="1.00" stroke-width="0.3"><path d="
M 424.00 153.00 
C 412.58 155.05 398.58 152.89 387.00 153.00 C 375.42 153.11 362.35 154.92 351.00 153.00
C 361.30 156.13 376.70 153.99 388.00 154.00 C 399.30 154.01 413.77 156.24 424.00 153.00 Z"/>
</g>
<g fill="None" fill-opacity="0.0" stroke="#383E6A" stroke-opacity="1.00" stroke-width="0.3"><path d="
M 222.00 166.00 
C 222.25 165.75 223.00 166.00 223.00 166.00
C 225.90 161.85 230.38 157.62 234.00 154.00
C 230.31 157.16 224.21 161.48 222.00 166.00 Z"/>
</g>
<g fill="None" fill-opacity="0.0" stroke="#676869" stroke-opacity="1.00" stroke-width="0.3"><path d="
M 93.00 160.00 
C 87.07 157.60 84.27 168.12 90.33 170.67 C 96.38 173.21 97.64 161.88 93.00 160.00 Z"/>
</g>
<g fill="None" fill-opacity="0.0" stroke="#3B47E6" stroke-opacity="0.97" stroke-width="0.3"><path d="
M 488.00 377.00 
C 490.79 341.79 487.85 305.34 488.00 270.00 C 488.15 234.66 490.40 198.25 488.00 163.00
C 485.97 233.20 486.77 306.73 488.00 377.00 Z"/>
</g>
<g fill="None" fill-opacity="0.0" stroke="#E4E6FB" stroke-opacity="1.00" stroke-width="0.3"><path d="
M 222.00 167.00 
C 255.67 170.04 290.17 165.86 324.00 167.00 C 357.83 168.14 392.13 166.99 426.00 167.00
C 426.50 167.00 427.00 167.00 427.00 167.00
C 406.06 161.81 381.21 167.66 359.00 166.00 C 336.79 164.34 313.43 166.62 291.00 166.00 C 268.57 165.38 245.49 166.00 223.00 166.00
C 223.00 166.00 222.25 165.75 222.00 166.00
C 222.00 166.00 222.23 166.84 222.00 167.00 Z"/>
</g>
<g fill="None" fill-opacity="0.0" stroke="#F7FDFC" stroke-opacity="1.00" stroke-width="0.3"><path d="
M 152.00 200.00 
C 147.73 200.00 143.25 200.38 139.00 200.00
C 141.23 224.76 138.16 250.12 139.00 275.00 C 139.84 299.88 139.00 325.09 139.00 350.00
C 139.00 350.50 138.94 351.51 139.00 352.00
C 140.96 358.87 157.07 353.87 164.00 355.00 C 170.93 356.13 183.74 354.49 192.00 355.00 C 200.26 355.51 211.11 354.77 220.00 355.00 C 228.89 355.23 238.79 354.90 248.00 355.00 C 257.21 355.10 267.69 354.95 277.00 355.00 C 286.31 355.05 295.71 354.97 305.00 355.00 C 314.29 355.03 323.76 354.97 333.00 355.00 C 342.24 355.03 351.86 354.95 361.00 355.00 C 370.14 355.05 381.19 354.91 390.00 355.00 C 398.81 355.09 407.07 355.35 414.08 351.08 C 421.08 346.80 423.68 342.78 425.93 334.93 C 428.17 327.07 426.71 316.89 427.00 308.00 C 427.29 299.11 426.89 288.17 427.00 279.00 C 427.11 269.83 427.02 260.25 427.00 251.00 C 426.98 241.75 427.17 232.26 427.00 223.00 C 426.83 213.74 427.43 204.24 427.00 195.00 C 426.57 185.76 428.39 175.76 426.00 167.00
C 392.13 166.99 357.83 168.14 324.00 167.00 C 290.17 165.86 255.67 170.04 222.00 167.00
C 209.99 175.39 207.41 185.57 196.75 195.75 C 186.09 205.93 165.75 200.00 152.00 200.00
M 301.00 196.00 
C 314.08 196.50 325.64 202.30 335.00 211.00
C 335.55 211.51 336.41 211.64 337.00 212.00
C 340.40 214.07 343.69 217.89 346.00 221.00
C 353.77 231.44 358.30 244.01 359.00 257.00
C 359.50 260.09 359.36 263.02 359.00 266.00
C 357.81 325.59 277.23 349.44 241.00 304.00
C 233.33 294.38 227.38 281.37 226.00 269.00
C 225.51 264.58 226.69 259.63 227.00 256.00
C 226.64 241.83 233.12 230.26 241.00 219.00
C 243.32 215.69 246.74 212.28 250.00 210.00
C 258.73 203.89 267.05 198.48 278.00 197.00
C 279.20 196.67 280.17 195.76 282.00 196.00
C 282.49 196.06 283.00 196.00 283.00 196.00
C 287.03 193.02 296.80 195.40 301.00 196.00 Z"/>
</g>
<g fill="None" fill-opacity="0.0" stroke="#DBDDFB" stroke-opacity="1.00" stroke-width="0.3"><path d="
M 139.00 352.00 
C 140.42 363.19 151.35 371.58 162.00 373.00
C 190.10 374.04 220.02 371.41 249.00 372.00 C 277.98 372.59 307.97 372.89 337.00 372.00 C 366.03 371.11 396.13 374.96 425.00 372.00
C 445.25 367.51 448.02 350.96 447.00 332.00 C 445.98 313.04 447.21 288.51 447.00 270.00 C 446.79 251.49 446.54 224.63 447.00 208.00 C 447.46 191.37 447.06 167.40 427.00 167.00
C 427.00 167.00 426.50 167.00 426.00 167.00
C 428.39 175.76 426.57 185.76 427.00 195.00 C 427.43 204.24 426.83 213.74 427.00 223.00 C 427.17 232.26 426.98 241.75 427.00 251.00 C 427.02 260.25 427.11 269.83 427.00 279.00 C 426.89 288.17 427.29 299.11 427.00 308.00 C 426.71 316.89 428.17 327.07 425.93 334.93 C 423.68 342.78 421.08 346.80 414.08 351.08 C 407.07 355.35 398.81 355.09 390.00 355.00 C 381.19 354.91 370.14 355.05 361.00 355.00 C 351.86 354.95 342.24 355.03 333.00 355.00 C 323.76 354.97 314.29 355.03 305.00 355.00 C 295.71 354.97 286.31 355.05 277.00 355.00 C 267.69 354.95 257.21 355.10 248.00 355.00 C 238.79 354.90 228.89 355.23 220.00 355.00 C 211.11 354.77 200.26 355.51 192.00 355.00 C 183.74 354.49 170.93 356.13 164.00 355.00 C 157.07 353.87 140.96 358.87 139.00 352.00 Z"/>
</g>
<g fill="None" fill-opacity="0.0" stroke="#676869" stroke-opacity="1.00" stroke-width="0.3"><path d="
M 98.00 175.00 
C 91.02 174.16 93.11 190.91 99.97 191.97 C 106.84 193.04 103.91 175.71 98.00 175.00 Z"/>
</g>
<g fill="None" fill-opacity="0.0" stroke="#93D69A" stroke-opacity="1.00" stroke-width="0.3"><path d="
M 283.00 196.00 
C 288.99 196.00 295.02 195.77 301.00 196.00
C 296.80 195.40 287.03 193.02 283.00 196.00 Z"/>
</g>
<g fill="None" fill-opacity="0.0" stroke="#93D69A" stroke-opacity="1.00" stroke-width="0.3"><path d="
M 278.00 197.00 
C 279.88 196.74 280.68 197.35 282.00 196.00
C 280.17 195.76 279.20 196.67 278.00 197.00 Z"/>
</g>
<g fill="None" fill-opacity="0.0" stroke="#4DC15A" stroke-opacity="1.00" stroke-width="0.3"><path d="
M 278.00 197.00 
C 267.05 198.48 258.73 203.89 250.00 210.00
C 247.28 212.23 243.19 216.34 241.00 219.00
C 233.12 230.26 226.64 241.83 227.00 256.00
C 227.11 260.18 225.95 265.68 226.00 269.00
C 227.38 281.37 233.33 294.38 241.00 304.00
C 256.31 313.91 282.67 317.93 301.07 311.07 C 319.48 304.22 333.71 291.84 341.31 273.31 C 348.90 254.77 348.10 227.43 335.00 211.00
C 325.64 202.30 314.08 196.50 301.00 196.00
C 295.02 195.77 288.99 196.00 283.00 196.00
C 283.00 196.00 282.49 196.06 282.00 196.00
C 280.68 197.35 279.88 196.74 278.00 197.00
M 294.00 209.00 
C 300.34 213.42 284.49 221.75 279.78 216.22 C 275.07 210.70 289.25 205.69 294.00 209.00
M 265.00 218.00 
C 271.69 220.68 261.72 228.67 258.75 231.75 C 255.79 234.83 251.29 243.72 250.02 248.03 C 248.75 252.33 248.30 266.95 241.33 263.67 C 234.36 260.39 241.43 249.46 241.93 244.93 C 242.42 240.40 247.29 231.59 250.75 228.75 C 254.21 225.91 260.13 216.05 265.00 218.00
M 318.00 252.00 
C 330.32 260.89 320.60 272.32 310.30 277.30 C 300.00 282.29 292.83 295.84 280.00 293.00
C 277.50 292.45 276.48 290.96 275.00 289.00
C 274.38 288.18 273.21 286.99 273.00 286.00
C 272.81 285.11 273.00 283.91 273.00 283.00
C 270.59 272.01 269.60 250.76 273.00 240.00
C 280.20 217.23 307.97 244.77 318.00 252.00 Z"/>
</g>
<g fill="None" fill-opacity="0.0" stroke="#323536" stroke-opacity="0.84" stroke-width="0.3"><path d="
M 91.00 200.00 
C 92.03 200.14 96.80 198.12 98.00 198.00
C 95.09 198.00 90.77 198.83 88.00 198.00
C 88.96 198.75 89.73 199.41 91.00 200.00 Z"/>
</g>
<g fill="None" fill-opacity="0.0" stroke="#383E6A" stroke-opacity="1.00" stroke-width="0.3"><path d="
M 128.00 200.00 
C 131.33 200.00 134.67 200.00 138.00 200.00
C 138.50 200.00 139.00 200.00 139.00 200.00
C 139.25 199.75 139.00 199.00 139.00 199.00
C 135.25 199.00 131.08 199.70 128.00 200.00 Z"/>
</g>
<g fill="None" fill-opacity="0.0" stroke="#676869" stroke-opacity="1.00" stroke-width="0.3"><path d="
M 139.00 200.00 
C 143.25 200.38 147.73 200.00 152.00 200.00
C 148.34 199.65 143.41 199.00 139.00 199.00
C 139.00 199.00 139.25 199.75 139.00 200.00 Z"/>
</g>
<g fill="None" fill-opacity="0.0" stroke="#979BF2" stroke-opacity="1.00" stroke-width="0.3"><path d="
M 139.00 350.00 
C 139.00 325.09 139.84 299.88 139.00 275.00 C 138.16 250.12 141.23 224.76 139.00 200.00
C 139.00 200.00 138.50 200.00 138.00 200.00
C 136.88 212.40 138.29 225.58 138.00 238.00 C 137.71 250.42 137.66 263.72 138.00 276.00 C 138.34 288.28 136.80 302.13 138.00 314.00 C 139.20 325.87 134.58 339.61 139.00 350.00 Z"/>
</g>
<g fill="None" fill-opacity="0.0" stroke="#85D589" stroke-opacity="1.00" stroke-width="0.3"><path d="
M 294.00 209.00 
C 289.25 205.69 275.07 210.70 279.78 216.22 C 284.49 221.75 300.34 213.42 294.00 209.00 Z"/>
</g>
<g fill="None" fill-opacity="0.0" stroke="#CFECD9" stroke-opacity="1.00" stroke-width="0.3"><path d="
M 241.00 219.00 
C 243.19 216.34 247.28 212.23 250.00 210.00
C 246.74 212.28 243.32 215.69 241.00 219.00 Z"/>
</g>
<g fill="None" fill-opacity="0.0" stroke="#43A049" stroke-opacity="1.00" stroke-width="0.3"><path d="
M 241.00 304.00 
C 277.23 349.44 357.81 325.59 359.00 266.00
C 359.06 263.03 359.16 259.97 359.00 257.00
C 358.30 244.01 353.77 231.44 346.00 221.00
C 343.47 218.10 339.78 214.59 337.00 212.00
C 336.41 211.64 335.55 211.51 335.00 211.00
C 348.10 227.43 348.90 254.77 341.31 273.31 C 333.71 291.84 319.48 304.22 301.07 311.07 C 282.67 317.93 256.31 313.91 241.00 304.00 Z"/>
</g>
<g fill="None" fill-opacity="0.0" stroke="#93D69A" stroke-opacity="1.00" stroke-width="0.3"><path d="
M 346.00 221.00 
C 343.69 217.89 340.40 214.07 337.00 212.00
C 339.78 214.59 343.47 218.10 346.00 221.00 Z"/>
</g>
<g fill="None" fill-opacity="0.0" stroke="#85D589" stroke-opacity="1.00" stroke-width="0.3"><path d="
M 265.00 218.00 
C 260.13 216.05 254.21 225.91 250.75 228.75 C 247.29 231.59 242.42 240.40 241.93 244.93 C 241.43 249.46 234.36 260.39 241.33 263.67 C 248.30 266.95 248.75 252.33 250.02 248.03 C 251.29 243.72 255.79 234.83 258.75 231.75 C 261.72 228.67 271.69 220.68 265.00 218.00 Z"/>
</g>
<g fill="None" fill-opacity="0.0" stroke="#F7FDFC" stroke-opacity="1.00" stroke-width="0.3"><path d="
M 273.00 240.00 
C 270.61 253.35 273.00 269.40 273.00 283.00
C 273.00 283.91 272.81 285.11 273.00 286.00
C 281.29 287.52 292.64 278.95 298.70 273.70 C 304.75 268.44 321.37 262.20 318.00 252.00
C 307.97 244.77 280.20 217.23 273.00 240.00 Z"/>
</g>
<g fill="None" fill-opacity="0.0" stroke="#69CA70" stroke-opacity="1.00" stroke-width="0.3"><path d="
M 273.00 283.00 
C 273.00 269.40 270.61 253.35 273.00 240.00
C 269.60 250.76 270.59 272.01 273.00 283.00 Z"/>
</g>
<g fill="None" fill-opacity="0.0" stroke="#808AF1" stroke-opacity="1.00" stroke-width="0.3"><path d="
M 126.00 260.00 
C 126.49 257.25 126.47 252.75 126.00 250.00
C 125.78 242.15 114.96 241.11 111.00 247.00
C 111.20 251.62 111.20 258.38 111.00 263.00
C 116.44 269.20 123.59 267.61 126.00 260.00 Z"/>
</g>
<g fill="None" fill-opacity="0.0" stroke="#5E6BEF" stroke-opacity="1.00" stroke-width="0.3"><path d="
M 126.00 260.00 
C 127.08 256.60 127.05 253.45 126.00 250.00
C 126.47 252.75 126.49 257.25 126.00 260.00 Z"/>
</g>
<g fill="None" fill-opacity="0.0" stroke="#DBDDFB" stroke-opacity="1.00" stroke-width="0.3"><path d="
M 273.00 286.00 
C 273.21 286.99 274.38 288.18 275.00 289.00
C 275.96 290.01 278.95 292.68 280.00 293.00
C 292.83 295.84 300.00 282.29 310.30 277.30 C 320.60 272.32 330.32 260.89 318.00 252.00
C 321.37 262.20 304.75 268.44 298.70 273.70 C 292.64 278.95 281.29 287.52 273.00 286.00 Z"/>
</g>
<g fill="None" fill-opacity="0.0" stroke="#85D589" stroke-opacity="1.00" stroke-width="0.3"><path d="
M 226.00 269.00 
C 225.95 265.68 227.11 260.18 227.00 256.00
C 226.69 259.63 225.51 264.58 226.00 269.00 Z"/>
</g>
<g fill="None" fill-opacity="0.0" stroke="#CFECD9" stroke-opacity="1.00" stroke-width="0.3"><path d="
M 359.00 266.00 
C 359.36 263.02 359.50 260.09 359.00 257.00
C 359.16 259.97 359.06 263.03 359.00 266.00 Z"/>
</g>
<g fill="None" fill-opacity="0.0" stroke="#808AF1" stroke-opacity="1.00" stroke-width="0.3"><path d="
M 126.00 338.00 
C 127.38 330.32 126.11 320.81 126.00 313.00 C 125.89 305.19 127.68 295.58 126.00 288.00
C 121.12 274.78 109.33 285.32 111.00 296.00 C 112.67 306.68 112.22 320.28 111.00 331.00 C 109.78 341.72 122.00 350.65 126.00 338.00 Z"/>
</g>
<g fill="None" fill-opacity="0.0" stroke="#5E6BEF" stroke-opacity="1.00" stroke-width="0.3"><path d="
M 126.00 338.00 
C 128.20 331.05 127.14 320.84 127.00 313.00 C 126.86 305.16 128.56 294.94 126.00 288.00
C 127.68 295.58 125.89 305.19 126.00 313.00 C 126.11 320.81 127.38 330.32 126.00 338.00 Z"/>
</g>
<g fill="None" fill-opacity="0.0" stroke="#CFECD9" stroke-opacity="1.00" stroke-width="0.3"><path d="
M 280.00 293.00 
C 278.95 292.68 275.96 290.01 275.00 289.00
C 276.48 290.96 277.50 292.45 280.00 293.00 Z"/>
</g>
<g fill="None" fill-opacity="0.0" stroke="#C0C2F6" stroke-opacity="1.00" stroke-width="0.3"><path d="
M 162.00 373.00 
C 183.50 375.87 206.30 371.94 228.00 373.00 C 249.70 374.06 272.31 373.04 294.00 373.00 C 315.69 372.96 338.52 374.16 360.00 373.00 C 381.48 371.84 404.66 376.51 425.00 372.00
C 396.13 374.96 366.03 371.11 337.00 372.00 C 307.97 372.89 277.98 372.59 249.00 372.00 C 220.02 371.41 190.10 374.04 162.00 373.00 Z"/>
</g>
<g fill="None" fill-opacity="0.0" stroke="#3B47E6" stroke-opacity="0.50" stroke-width="0.3"><path d="
M 483.00 391.00 
C 484.36 388.62 485.09 386.72 486.00 384.00
C 485.06 385.98 484.06 388.93 483.00 391.00 Z"/>
</g>
<g fill="None" fill-opacity="0.0" stroke="#525DEF" stroke-opacity="0.52" stroke-width="0.3"><path d="
M 471.00 405.00 
C 476.56 400.94 479.59 396.98 483.00 391.00
C 480.88 395.15 475.04 401.90 471.00 405.00 Z"/>
</g>
<g fill="None" fill-opacity="0.0" stroke="#3B4BE7" stroke-opacity="1.00" stroke-width="0.3"><path d="
M 237.00 399.00 
C 268.73 395.07 302.09 401.14 334.00 399.00 C 365.91 396.86 398.07 400.73 430.00 399.00
C 409.62 398.13 387.19 397.18 366.00 398.00 C 344.81 398.82 322.03 396.40 301.00 398.00 C 279.97 399.60 256.85 394.08 237.00 399.00 Z"/>
</g>
<g fill="None" fill-opacity="0.0" stroke="#3B4BE7" stroke-opacity="0.55" stroke-width="0.3"><path d="
M 456.00 413.00 
C 461.85 412.14 466.55 408.25 471.00 405.00
C 467.89 407.38 459.45 412.07 456.00 413.00 Z"/>
</g>
<g fill="None" fill-opacity="0.0" stroke="#3B4BE7" stroke-opacity="0.82" stroke-width="0.3"><path d="
M 245.00 418.00 
C 258.01 408.33 277.69 415.79 294.00 414.00 C 310.31 412.21 330.03 414.91 347.00 414.00 C 363.97 413.09 382.84 414.64 400.00 414.00 C 417.16 413.36 435.58 415.24 452.00 413.00
C 434.51 413.00 416.43 412.81 399.00 413.00 C 381.57 413.19 363.21 412.49 346.00 413.00 C 328.79 413.51 309.70 411.83 293.00 413.00 C 276.30 414.17 257.86 408.15 245.00 418.00 Z"/>
</g>
<g fill="None" fill-opacity="0.0" stroke="#3B4BE7" stroke-opacity="0.47" stroke-width="0.3"><path d="
M 236.00 425.00 
C 239.00 422.75 242.10 420.16 245.00 418.00
C 241.98 420.32 238.91 422.06 236.00 425.00 Z"/>
</g>
<g fill="None" fill-opacity="0.0" stroke="#3B4BE7" stroke-opacity="0.57" stroke-width="0.3"><path d="
M 212.00 442.00 
C 212.36 441.78 213.00 442.00 213.00 442.00
C 219.07 438.23 224.37 433.10 230.00 429.00
C 223.70 432.58 217.84 437.61 212.00 442.00 Z"/>
</g>
<g fill="None" fill-opacity="0.0" stroke="#525DEF" stroke-opacity="0.40" stroke-width="0.3"><path d="
M 205.00 447.00 
C 204.55 447.54 204.40 448.52 204.00 449.00
C 207.05 446.78 210.08 444.20 213.00 442.00
C 213.00 442.00 212.36 441.78 212.00 442.00
C 209.54 443.53 207.38 445.27 205.00 447.00 Z"/>
</g>
<g fill="None" fill-opacity="0.0" stroke="#3B47E6" stroke-opacity="0.49" stroke-width="0.3"><path d="
M 195.00 455.00 
C 197.69 453.04 201.08 451.13 204.00 449.00
C 204.40 448.52 204.55 447.54 205.00 447.00
C 201.56 449.50 198.28 452.56 195.00 455.00 Z"/>
</g>
<g fill="None" fill-opacity="0.0" stroke="#3B47E6" stroke-opacity="0.68" stroke-width="0.3"><path d="
M 171.00 473.00 
C 171.13 472.96 171.00 472.00 171.00 472.00
C 158.64 472.46 162.79 460.72 162.00 452.00
C 162.00 452.00 161.00 451.96 161.00 452.00
C 161.00 459.67 158.40 475.48 171.00 473.00 Z"/>
</g>
<g fill="None" fill-opacity="0.0" stroke="#3B4BE7" stroke-opacity="0.45" stroke-width="0.3"><path d="
M 171.00 472.00 
C 171.00 472.00 171.13 472.96 171.00 473.00
C 179.47 470.63 188.09 460.04 195.00 455.00
C 187.25 460.77 178.34 465.59 171.00 472.00 Z"/>
</g>
<g fill="#000000" fill-opacity="0.00" stroke="None">
<path d="
M 0.00 512.00 
L 512.00 512.00
L 512.00 0.00
L 0.00 0.00
L 0.00 512.00
M 266.00 44.00 
C 270.00 52.36 262.60 55.16 256.77 59.77 C 250.94 64.38 245.95 68.16 240.00 72.00
C 242.19 80.85 248.37 88.47 250.77 97.23 C 253.17 105.99 260.91 115.47 260.00 125.00
C 266.44 121.37 277.35 126.56 285.00 125.00 C 292.65 123.44 302.81 125.70 311.00 125.00 C 319.19 124.30 328.59 125.30 337.00 125.00 C 345.41 124.70 354.53 125.11 363.00 125.00 C 371.47 124.89 380.62 124.98 389.00 125.00 C 397.38 125.02 405.80 124.83 414.00 125.00 C 422.20 125.17 432.15 124.58 440.00 125.00 C 447.85 125.42 458.12 123.49 464.68 126.32 C 471.24 129.16 474.18 133.64 478.30 138.70 C 482.43 143.75 485.34 149.79 487.00 156.00
C 487.61 158.28 487.83 160.56 488.00 163.00
C 490.40 198.25 488.15 234.66 488.00 270.00 C 487.85 305.34 490.79 341.79 488.00 377.00
C 487.79 379.60 486.97 381.95 486.00 384.00
C 485.09 386.72 484.36 388.62 483.00 391.00
C 479.59 396.98 476.56 400.94 471.00 405.00
C 466.55 408.25 461.85 412.14 456.00 413.00
C 454.73 413.19 453.28 413.00 452.00 413.00
C 435.58 415.24 417.16 413.36 400.00 414.00 C 382.84 414.64 363.97 413.09 347.00 414.00 C 330.03 414.91 310.31 412.21 294.00 414.00 C 277.69 415.79 258.01 408.33 245.00 418.00
C 242.10 420.16 239.00 422.75 236.00 425.00
C 234.25 426.77 232.07 427.82 230.00 429.00
C 224.37 433.10 219.07 438.23 213.00 442.00
C 210.08 444.20 207.05 446.78 204.00 449.00
C 201.08 451.13 197.69 453.04 195.00 455.00
C 188.09 460.04 179.47 470.63 171.00 473.00
C 158.40 475.48 161.00 459.67 161.00 452.00
C 161.00 439.33 161.00 426.67 161.00 414.00
C 137.49 416.13 104.51 412.06 99.02 383.98 C 93.54 355.89 98.33 323.62 97.00 294.00 C 95.67 264.38 98.00 231.88 97.00 202.00
C 99.52 201.44 103.30 203.19 105.00 201.00
C 99.61 201.00 95.75 202.22 91.00 200.00
C 89.73 199.41 88.96 198.75 88.00 198.00
C 80.60 192.22 78.31 182.29 75.07 173.93 C 71.84 165.56 66.06 156.78 64.00 148.00
C 63.89 147.53 64.00 147.00 64.00 147.00
C 59.46 148.06 52.98 149.39 48.33 149.33 C 43.68 149.27 36.28 153.46 32.00 152.00
C 36.01 160.39 38.88 167.98 41.98 177.02 C 45.07 186.07 55.82 186.95 57.00 197.00 C 58.18 207.05 68.54 208.63 71.75 218.25 C 74.96 227.87 62.51 228.43 53.93 232.93 C 45.34 237.42 41.40 222.79 42.01 213.99 C 42.62 205.19 29.28 195.81 40.00 188.00
C 36.68 170.79 11.84 146.25 33.00 133.00
C 41.94 126.36 50.01 118.86 59.25 112.25 C 68.48 105.63 76.70 99.07 85.75 91.75 C 94.80 84.43 104.08 79.13 113.23 71.23 C 122.38 63.33 132.15 56.30 145.01 56.01 C 157.86 55.72 174.43 50.66 187.00 50.00 C 199.57 49.34 216.45 43.50 228.00 44.00 C 239.55 44.50 260.18 31.82 266.00 44.00 Z"/>
</g>
<g fill="#414243" fill-opacity="0.98" stroke="None">
<path d="
M 33.00 133.00 
C 37.55 131.18 44.20 129.41 50.03 127.02 C 55.85 124.64 59.97 121.17 65.77 119.42 C 71.57 117.68 77.01 114.53 82.77 112.43 C 88.53 110.33 92.58 107.36 98.30 105.29 C 104.03 103.21 109.82 101.13 115.30 98.29 C 120.77 95.46 124.85 95.99 130.75 89.75 C 136.65 83.51 144.15 79.32 154.00 81.00 C 163.85 82.68 153.89 94.48 148.25 95.39 C 142.60 96.31 135.11 103.77 127.00 98.00
C 122.18 102.03 113.92 104.49 107.75 107.76 C 101.58 111.03 94.31 111.84 87.75 115.19 C 81.20 118.55 74.60 121.26 68.08 124.13 C 61.56 127.00 54.64 129.24 48.25 132.59 C 41.85 135.94 31.67 135.82 30.00 145.00
C 34.65 140.50 45.71 144.29 52.00 142.00 C 58.29 139.71 67.07 139.44 74.07 138.07 C 81.08 136.70 89.84 136.41 97.00 135.00 C 104.17 133.59 112.44 132.74 119.67 131.67 C 126.90 130.60 135.03 129.08 142.02 128.02 C 149.02 126.97 157.30 127.02 162.70 122.70 C 168.09 118.38 172.24 115.45 177.25 111.25 C 182.25 107.05 187.34 104.30 192.23 100.23 C 197.12 96.16 201.83 92.64 206.75 88.75 C 211.67 84.87 216.73 81.44 221.70 77.70 C 226.66 73.95 231.24 69.90 236.23 66.23 C 241.22 62.56 246.14 58.74 251.23 55.23 C 256.32 51.72 261.09 46.73 266.00 44.00
C 260.18 31.82 239.55 44.50 228.00 44.00 C 216.45 43.50 199.57 49.34 187.00 50.00 C 174.43 50.66 157.86 55.72 145.01 56.01 C 132.15 56.30 122.38 63.33 113.23 71.23 C 104.08 79.13 94.80 84.43 85.75 91.75 C 76.70 99.07 68.48 105.63 59.25 112.25 C 50.01 118.86 41.94 126.36 33.00 133.00 Z"/>
</g>
<g fill="#18191A" fill-opacity="0.97" stroke="None">
<path d="
M 30.00 145.00 
C 29.78 148.37 30.48 148.81 32.00 152.00
C 36.28 153.46 43.68 149.27 48.33 149.33 C 52.98 149.39 59.46 148.06 64.00 147.00
C 72.82 141.03 88.43 144.36 99.02 141.02 C 109.62 137.69 125.07 138.29 136.00 136.00 C 146.93 133.71 159.88 133.59 168.25 126.25 C 176.62 118.91 184.14 115.01 192.25 108.25 C 200.35 101.48 207.92 96.28 216.08 90.08 C 224.24 83.88 231.49 77.49 240.00 72.00
C 245.95 68.16 250.94 64.38 256.77 59.77 C 262.60 55.16 270.00 52.36 266.00 44.00
C 261.09 46.73 256.32 51.72 251.23 55.23 C 246.14 58.74 241.22 62.56 236.23 66.23 C 231.24 69.90 226.66 73.95 221.70 77.70 C 216.73 81.44 211.67 84.87 206.75 88.75 C 201.83 92.64 197.12 96.16 192.23 100.23 C 187.34 104.30 182.25 107.05 177.25 111.25 C 172.24 115.45 168.09 118.38 162.70 122.70 C 157.30 127.02 149.02 126.97 142.02 128.02 C 135.03 129.08 126.90 130.60 119.67 131.67 C 112.44 132.74 104.17 133.59 97.00 135.00 C 89.84 136.41 81.08 136.70 74.07 138.07 C 67.07 139.44 58.29 139.71 52.00 142.00 C 45.71 144.29 34.65 140.50 30.00 145.00 Z"/>
</g>
<g fill="#272A2B" fill-opacity="0.99" stroke="None">
<path d="
M 64.00 147.00 
C 64.00 147.00 63.89 147.53 64.00 148.00
C 65.15 149.43 66.28 151.14 67.00 153.00
C 89.54 151.59 113.86 142.75 136.22 142.22 C 158.58 141.69 175.43 131.29 191.25 117.25 C 207.06 103.21 222.17 96.32 237.00 82.00
C 243.43 94.37 261.11 120.76 247.70 133.70 C 234.29 146.63 222.14 154.95 210.08 169.08 C 198.03 183.22 189.26 201.73 167.93 198.07 C 146.60 194.42 119.86 196.69 98.00 198.00
C 96.80 198.12 92.03 200.14 91.00 200.00
C 95.75 202.22 99.61 201.00 105.00 201.00
C 112.90 201.00 120.06 200.00 128.00 200.00
C 131.08 199.70 135.25 199.00 139.00 199.00
C 143.41 199.00 148.34 199.65 152.00 200.00
C 165.75 200.00 186.09 205.93 196.75 195.75 C 207.41 185.57 209.99 175.39 222.00 167.00
C 222.23 166.84 222.00 166.00 222.00 166.00
C 224.21 161.48 230.31 157.16 234.00 154.00
C 242.52 146.72 258.88 136.70 260.00 125.00
C 260.91 115.47 253.17 105.99 250.77 97.23 C 248.37 88.47 242.19 80.85 240.00 72.00
C 231.49 77.49 224.24 83.88 216.08 90.08 C 207.92 96.28 200.35 101.48 192.25 108.25 C 184.14 115.01 176.62 118.91 168.25 126.25 C 159.88 133.59 146.93 133.71 136.00 136.00 C 125.07 138.29 109.62 137.69 99.02 141.02 C 88.43 144.36 72.82 141.03 64.00 147.00 Z"/>
</g>
<g fill="#EFB433" fill-opacity="0.95" stroke="None">
<path d="
M 33.00 133.00 
C 11.84 146.25 36.68 170.79 40.00 188.00
C 29.28 195.81 42.62 205.19 42.01 213.99 C 41.40 222.79 45.34 237.42 53.93 232.93 C 62.51 228.43 74.96 227.87 71.75 218.25 C 68.54 208.63 58.18 207.05 57.00 197.00 C 55.82 186.95 45.07 186.07 41.98 177.02 C 38.88 167.98 36.01 160.39 32.00 152.00
C 30.48 148.81 29.78 148.37 30.00 145.00
C 31.67 135.82 41.85 135.94 48.25 132.59 C 54.64 129.24 61.56 127.00 68.08 124.13 C 74.60 121.26 81.20 118.55 87.75 115.19 C 94.31 111.84 101.58 111.03 107.75 107.76 C 113.92 104.49 122.18 102.03 127.00 98.00
C 135.11 103.77 142.60 96.31 148.25 95.39 C 153.89 94.48 163.85 82.68 154.00 81.00 C 144.15 79.32 136.65 83.51 130.75 89.75 C 124.85 95.99 120.77 95.46 115.30 98.29 C 109.82 101.13 104.03 103.21 98.30 105.29 C 92.58 107.36 88.53 110.33 82.77 112.43 C 77.01 114.53 71.57 117.68 65.77 119.42 C 59.97 121.17 55.85 124.64 50.03 127.02 C 44.20 129.41 37.55 131.18 33.00 133.00 Z"/>
</g>
<g fill="#414243" fill-opacity="1.00" stroke="None">
<path d="
M 64.00 148.00 
C 66.06 156.78 71.84 165.56 75.07 173.93 C 78.31 182.29 80.60 192.22 88.00 198.00
C 90.77 198.83 95.09 198.00 98.00 198.00
C 119.86 196.69 146.60 194.42 167.93 198.07 C 189.26 201.73 198.03 183.22 210.08 169.08 C 222.14 154.95 234.29 146.63 247.70 133.70 C 261.11 120.76 243.43 94.37 237.00 82.00
C 222.17 96.32 207.06 103.21 191.25 117.25 C 175.43 131.29 158.58 141.69 136.22 142.22 C 113.86 142.75 89.54 151.59 67.00 153.00
C 66.28 151.14 65.15 149.43 64.00 148.00
M 93.00 160.00 
C 97.64 161.88 96.38 173.21 90.33 170.67 C 84.27 168.12 87.07 157.60 93.00 160.00
M 98.00 175.00 
C 103.91 175.71 106.84 193.04 99.97 191.97 C 93.11 190.91 91.02 174.16 98.00 175.00 Z"/>
</g>
<g fill="#525DEF" fill-opacity="0.99" stroke="None">
<path d="
M 234.00 154.00 
C 230.38 157.62 225.90 161.85 223.00 166.00
C 245.49 166.00 268.57 165.38 291.00 166.00 C 313.43 166.62 336.79 164.34 359.00 166.00 C 381.21 167.66 406.06 161.81 427.00 167.00
C 447.06 167.40 447.46 191.37 447.00 208.00 C 446.54 224.63 446.79 251.49 447.00 270.00 C 447.21 288.51 445.98 313.04 447.00 332.00 C 448.02 350.96 445.25 367.51 425.00 372.00
C 404.66 376.51 381.48 371.84 360.00 373.00 C 338.52 374.16 315.69 372.96 294.00 373.00 C 272.31 373.04 249.70 374.06 228.00 373.00 C 206.30 371.94 183.50 375.87 162.00 373.00
C 151.35 371.58 140.42 363.19 139.00 352.00
C 138.94 351.51 139.00 350.50 139.00 350.00
C 134.58 339.61 139.20 325.87 138.00 314.00 C 136.80 302.13 138.34 288.28 138.00 276.00 C 137.66 263.72 137.71 250.42 138.00 238.00 C 138.29 225.58 136.88 212.40 138.00 200.00
C 134.67 200.00 131.33 200.00 128.00 200.00
C 120.06 200.00 112.90 201.00 105.00 201.00
C 103.30 203.19 99.52 201.44 97.00 202.00
C 98.00 231.88 95.67 264.38 97.00 294.00 C 98.33 323.62 93.54 355.89 99.02 383.98 C 104.51 412.06 137.49 416.13 161.00 414.00
C 161.00 426.67 161.00 439.33 161.00 452.00
C 161.00 451.96 162.00 452.00 162.00 452.00
C 174.59 443.95 185.80 432.44 198.70 424.70 C 211.60 416.95 222.25 402.65 237.00 399.00
C 256.85 394.08 279.97 399.60 301.00 398.00 C 322.03 396.40 344.81 398.82 366.00 398.00 C 387.19 397.18 409.62 398.13 430.00 399.00
C 452.07 397.80 469.37 378.16 470.00 357.00
C 471.02 322.96 470.12 289.10 470.00 255.00 C 469.88 220.90 471.30 186.11 470.00 152.00
C 469.71 144.32 467.82 137.79 465.00 131.00
C 477.48 133.02 481.25 147.31 487.00 156.00
C 485.34 149.79 482.43 143.75 478.30 138.70 C 474.18 133.64 471.24 129.16 464.68 126.32 C 458.12 123.49 447.85 125.42 440.00 125.00 C 432.15 124.58 422.20 125.17 414.00 125.00 C 405.80 124.83 397.38 125.02 389.00 125.00 C 380.62 124.98 371.47 124.89 363.00 125.00 C 354.53 125.11 345.41 124.70 337.00 125.00 C 328.59 125.30 319.19 124.30 311.00 125.00 C 302.81 125.70 292.65 123.44 285.00 125.00 C 277.35 126.56 266.44 121.37 260.00 125.00
C 258.88 136.70 242.52 146.72 234.00 154.00
M 321.00 153.00 
C 317.53 154.05 314.41 154.04 311.00 153.00
C 298.46 149.19 305.30 138.11 316.00 138.00 C 326.70 137.90 332.92 149.38 321.00 153.00
M 424.00 153.00 
C 413.77 156.24 399.30 154.01 388.00 154.00 C 376.70 153.99 361.30 156.13 351.00 153.00
C 340.59 149.84 343.23 137.91 354.00 138.00 C 364.78 138.10 375.25 138.79 386.00 138.00 C 396.75 137.21 407.22 140.21 418.00 138.00 C 428.78 135.79 435.80 149.27 424.00 153.00
M 126.00 250.00 
C 127.05 253.45 127.08 256.60 126.00 260.00
C 123.59 267.61 116.44 269.20 111.00 263.00
C 111.20 258.38 111.20 251.62 111.00 247.00
C 114.96 241.11 125.78 242.15 126.00 250.00
M 126.00 288.00 
C 128.56 294.94 126.86 305.16 127.00 313.00 C 127.14 320.84 128.20 331.05 126.00 338.00
C 122.00 350.65 109.78 341.72 111.00 331.00 C 112.22 320.28 112.67 306.68 111.00 296.00 C 109.33 285.32 121.12 274.78 126.00 288.00 Z"/>
</g>
<g fill="#313EDF" fill-opacity="1.00" stroke="None">
<path d="
M 470.00 152.00 
C 474.62 184.31 471.03 220.67 471.00 254.00 C 470.97 287.34 474.59 324.67 470.00 357.00
C 469.37 378.16 452.07 397.80 430.00 399.00
C 398.07 400.73 365.91 396.86 334.00 399.00 C 302.09 401.14 268.73 395.07 237.00 399.00
C 222.25 402.65 211.60 416.95 198.70 424.70 C 185.80 432.44 174.59 443.95 162.00 452.00
C 162.79 460.72 158.64 472.46 171.00 472.00
C 178.34 465.59 187.25 460.77 195.00 455.00
C 198.28 452.56 201.56 449.50 205.00 447.00
C 207.38 445.27 209.54 443.53 212.00 442.00
C 217.84 437.61 223.70 432.58 230.00 429.00
C 232.07 427.82 234.25 426.77 236.00 425.00
C 238.91 422.06 241.98 420.32 245.00 418.00
C 257.86 408.15 276.30 414.17 293.00 413.00 C 309.70 411.83 328.79 413.51 346.00 413.00 C 363.21 412.49 381.57 413.19 399.00 413.00 C 416.43 412.81 434.51 413.00 452.00 413.00
C 453.28 413.00 454.73 413.19 456.00 413.00
C 459.45 412.07 467.89 407.38 471.00 405.00
C 475.04 401.90 480.88 395.15 483.00 391.00
C 484.06 388.93 485.06 385.98 486.00 384.00
C 486.97 381.95 487.79 379.60 488.00 377.00
C 486.77 306.73 485.97 233.20 488.00 163.00
C 487.83 160.56 487.61 158.28 487.00 156.00
C 481.25 147.31 477.48 133.02 465.00 131.00
C 467.82 137.79 469.71 144.32 470.00 152.00 Z"/>
</g>
<g fill="#808AF1" fill-opacity="1.00" stroke="None">
<path d="
M 311.00 153.00 
C 313.78 153.47 318.22 153.47 321.00 153.00
C 332.92 149.38 326.70 137.90 316.00 138.00 C 305.30 138.11 298.46 149.19 311.00 153.00 Z"/>
</g>
<g fill="#808AF1" fill-opacity="1.00" stroke="None">
<path d="
M 351.00 153.00 
C 362.35 154.92 375.42 153.11 387.00 153.00 C 398.58 152.89 412.58 155.05 424.00 153.00
C 435.80 149.27 428.78 135.79 418.00 138.00 C 407.22 140.21 396.75 137.21 386.00 138.00 C 375.25 138.79 364.78 138.10 354.00 138.00 C 343.23 137.91 340.59 149.84 351.00 153.00 Z"/>
</g>
<g fill="#3B47E6" fill-opacity="1.00" stroke="None">
<path d="
M 470.00 357.00 
C 474.59 324.67 470.97 287.34 471.00 254.00 C 471.03 220.67 474.62 184.31 470.00 152.00
C 471.30 186.11 469.88 220.90 470.00 255.00 C 470.12 289.10 471.02 322.96 470.00 357.00 Z"/>
</g>
<g fill="#5E6BEF" fill-opacity="1.00" stroke="None">
<path d="
M 321.00 153.00 
C 318.22 153.47 313.78 153.47 311.00 153.00
C 314.41 154.04 317.53 154.05 321.00 153.00 Z"/>
</g>
<g fill="#5E6BEF" fill-opacity="1.00" stroke="None">
<path d="
M 424.00 153.00 
C 412.58 155.05 398.58 152.89 387.00 153.00 C 375.42 153.11 362.35 154.92 351.00 153.00
C 361.30 156.13 376.70 153.99 388.00 154.00 C 399.30 154.01 413.77 156.24 424.00 153.00 Z"/>
</g>
<g fill="#383E6A" fill-opacity="1.00" stroke="None">
<path d="
M 222.00 166.00 
C 222.25 165.75 223.00 166.00 223.00 166.00
C 225.90 161.85 230.38 157.62 234.00 154.00
C 230.31 157.16 224.21 161.48 222.00 166.00 Z"/>
</g>
<g fill="#676869" fill-opacity="1.00" stroke="None">
<path d="
M 93.00 160.00 
C 87.07 157.60 84.27 168.12 90.33 170.67 C 96.38 173.21 97.64 161.88 93.00 160.00 Z"/>
</g>
<g fill="#3B47E6" fill-opacity="0.97" stroke="None">
<path d="
M 488.00 377.00 
C 490.79 341.79 487.85 305.34 488.00 270.00 C 488.15 234.66 490.40 198.25 488.00 163.00
C 485.97 233.20 486.77 306.73 488.00 377.00 Z"/>
</g>
<g fill="#E4E6FB" fill-opacity="1.00" stroke="None">
<path d="
M 222.00 167.00 
C 255.67 170.04 290.17 165.86 324.00 167.00 C 357.83 168.14 392.13 166.99 426.00 167.00
C 426.50 167.00 427.00 167.00 427.00 167.00
C 406.06 161.81 381.21 167.66 359.00 166.00 C 336.79 164.34 313.43 166.62 291.00 166.00 C 268.57 165.38 245.49 166.00 223.00 166.00
C 223.00 166.00 222.25 165.75 222.00 166.00
C 222.00 166.00 222.23 166.84 222.00 167.00 Z"/>
</g>
<g fill="#F7FDFC" fill-opacity="1.00" stroke="None">
<path d="
M 152.00 200.00 
C 147.73 200.00 143.25 200.38 139.00 200.00
C 141.23 224.76 138.16 250.12 139.00 275.00 C 139.84 299.88 139.00 325.09 139.00 350.00
C 139.00 350.50 138.94 351.51 139.00 352.00
C 140.96 358.87 157.07 353.87 164.00 355.00 C 170.93 356.13 183.74 354.49 192.00 355.00 C 200.26 355.51 211.11 354.77 220.00 355.00 C 228.89 355.23 238.79 354.90 248.00 355.00 C 257.21 355.10 267.69 354.95 277.00 355.00 C 286.31 355.05 295.71 354.97 305.00 355.00 C 314.29 355.03 323.76 354.97 333.00 355.00 C 342.24 355.03 351.86 354.95 361.00 355.00 C 370.14 355.05 381.19 354.91 390.00 355.00 C 398.81 355.09 407.07 355.35 414.08 351.08 C 421.08 346.80 423.68 342.78 425.93 334.93 C 428.17 327.07 426.71 316.89 427.00 308.00 C 427.29 299.11 426.89 288.17 427.00 279.00 C 427.11 269.83 427.02 260.25 427.00 251.00 C 426.98 241.75 427.17 232.26 427.00 223.00 C 426.83 213.74 427.43 204.24 427.00 195.00 C 426.57 185.76 428.39 175.76 426.00 167.00
C 392.13 166.99 357.83 168.14 324.00 167.00 C 290.17 165.86 255.67 170.04 222.00 167.00
C 209.99 175.39 207.41 185.57 196.75 195.75 C 186.09 205.93 165.75 200.00 152.00 200.00
M 301.00 196.00 
C 314.08 196.50 325.64 202.30 335.00 211.00
C 335.55 211.51 336.41 211.64 337.00 212.00
C 340.40 214.07 343.69 217.89 346.00 221.00
C 353.77 231.44 358.30 244.01 359.00 257.00
C 359.50 260.09 359.36 263.02 359.00 266.00
C 357.81 325.59 277.23 349.44 241.00 304.00
C 233.33 294.38 227.38 281.37 226.00 269.00
C 225.51 264.58 226.69 259.63 227.00 256.00
C 226.64 241.83 233.12 230.26 241.00 219.00
C 243.32 215.69 246.74 212.28 250.00 210.00
C 258.73 203.89 267.05 198.48 278.00 197.00
C 279.20 196.67 280.17 195.76 282.00 196.00
C 282.49 196.06 283.00 196.00 283.00 196.00
C 287.03 193.02 296.80 195.40 301.00 196.00 Z"/>
</g>
<g fill="#DBDDFB" fill-opacity="1.00" stroke="None">
<path d="
M 139.00 352.00 
C 140.42 363.19 151.35 371.58 162.00 373.00
C 190.10 374.04 220.02 371.41 249.00 372.00 C 277.98 372.59 307.97 372.89 337.00 372.00 C 366.03 371.11 396.13 374.96 425.00 372.00
C 445.25 367.51 448.02 350.96 447.00 332.00 C 445.98 313.04 447.21 288.51 447.00 270.00 C 446.79 251.49 446.54 224.63 447.00 208.00 C 447.46 191.37 447.06 167.40 427.00 167.00
C 427.00 167.00 426.50 167.00 426.00 167.00
C 428.39 175.76 426.57 185.76 427.00 195.00 C 427.43 204.24 426.83 213.74 427.00 223.00 C 427.17 232.26 426.98 241.75 427.00 251.00 C 427.02 260.25 427.11 269.83 427.00 279.00 C 426.89 288.17 427.29 299.11 427.00 308.00 C 426.71 316.89 428.17 327.07 425.93 334.93 C 423.68 342.78 421.08 346.80 414.08 351.08 C 407.07 355.35 398.81 355.09 390.00 355.00 C 381.19 354.91 370.14 355.05 361.00 355.00 C 351.86 354.95 342.24 355.03 333.00 355.00 C 323.76 354.97 314.29 355.03 305.00 355.00 C 295.71 354.97 286.31 355.05 277.00 355.00 C 267.69 354.95 257.21 355.10 248.00 355.00 C 238.79 354.90 228.89 355.23 220.00 355.00 C 211.11 354.77 200.26 355.51 192.00 355.00 C 183.74 354.49 170.93 356.13 164.00 355.00 C 157.07 353.87 140.96 358.87 139.00 352.00 Z"/>
</g>
<g fill="#676869" fill-opacity="1.00" stroke="None">
<path d="
M 98.00 175.00 
C 91.02 174.16 93.11 190.91 99.97 191.97 C 106.84 193.04 103.91 175.71 98.00 175.00 Z"/>
</g>
<g fill="#93D69A" fill-opacity="1.00" stroke="None">
<path d="
M 283.00 196.00 
C 288.99 196.00 295.02 195.77 301.00 196.00
C 296.80 195.40 287.03 193.02 283.00 196.00 Z"/>
</g>
<g fill="#93D69A" fill-opacity="1.00" stroke="None">
<path d="
M 278.00 197.00 
C 279.88 196.74 280.68 197.35 282.00 196.00
C 280.17 195.76 279.20 196.67 278.00 197.00 Z"/>
</g>
<g fill="#4DC15A" fill-opacity="1.00" stroke="None">
<path d="
M 278.00 197.00 
C 267.05 198.48 258.73 203.89 250.00 210.00
C 247.28 212.23 243.19 216.34 241.00 219.00
C 233.12 230.26 226.64 241.83 227.00 256.00
C 227.11 260.18 225.95 265.68 226.00 269.00
C 227.38 281.37 233.33 294.38 241.00 304.00
C 256.31 313.91 282.67 317.93 301.07 311.07 C 319.48 304.22 333.71 291.84 341.31 273.31 C 348.90 254.77 348.10 227.43 335.00 211.00
C 325.64 202.30 314.08 196.50 301.00 196.00
C 295.02 195.77 288.99 196.00 283.00 196.00
C 283.00 196.00 282.49 196.06 282.00 196.00
C 280.68 197.35 279.88 196.74 278.00 197.00
M 294.00 209.00 
C 300.34 213.42 284.49 221.75 279.78 216.22 C 275.07 210.70 289.25 205.69 294.00 209.00
M 265.00 218.00 
C 271.69 220.68 261.72 228.67 258.75 231.75 C 255.79 234.83 251.29 243.72 250.02 248.03 C 248.75 252.33 248.30 266.95 241.33 263.67 C 234.36 260.39 241.43 249.46 241.93 244.93 C 242.42 240.40 247.29 231.59 250.75 228.75 C 254.21 225.91 260.13 216.05 265.00 218.00
M 318.00 252.00 
C 330.32 260.89 320.60 272.32 310.30 277.30 C 300.00 282.29 292.83 295.84 280.00 293.00
C 277.50 292.45 276.48 290.96 275.00 289.00
C 274.38 288.18 273.21 286.99 273.00 286.00
C 272.81 285.11 273.00 283.91 273.00 283.00
C 270.59 272.01 269.60 250.76 273.00 240.00
C 280.20 217.23 307.97 244.77 318.00 252.00 Z"/>
</g>
<g fill="#323536" fill-opacity="0.84" stroke="None">
<path d="
M 91.00 200.00 
C 92.03 200.14 96.80 198.12 98.00 198.00
C 95.09 198.00 90.77 198.83 88.00 198.00
C 88.96 198.75 89.73 199.41 91.00 200.00 Z"/>
</g>
<g fill="#383E6A" fill-opacity="1.00" stroke="None">
<path d="
M 128.00 200.00 
C 131.33 200.00 134.67 200.00 138.00 200.00
C 138.50 200.00 139.00 200.00 139.00 200.00
C 139.25 199.75 139.00 199.00 139.00 199.00
C 135.25 199.00 131.08 199.70 128.00 200.00 Z"/>
</g>
<g fill="#676869" fill-opacity="1.00" stroke="None">
<path d="
M 139.00 200.00 
C 143.25 200.38 147.73 200.00 152.00 200.00
C 148.34 199.65 143.41 199.00 139.00 199.00
C 139.00 199.00 139.25 199.75 139.00 200.00 Z"/>
</g>
<g fill="#979BF2" fill-opacity="1.00" stroke="None">
<path d="
M 139.00 350.00 
C 139.00 325.09 139.84 299.88 139.00 275.00 C 138.16 250.12 141.23 224.76 139.00 200.00
C 139.00 200.00 138.50 200.00 138.00 200.00
C 136.88 212.40 138.29 225.58 138.00 238.00 C 137.71 250.42 137.66 263.72 138.00 276.00 C 138.34 288.28 136.80 302.13 138.00 314.00 C 139.20 325.87 134.58 339.61 139.00 350.00 Z"/>
</g>
<g fill="#85D589" fill-opacity="1.00" stroke="None">
<path d="
M 294.00 209.00 
C 289.25 205.69 275.07 210.70 279.78 216.22 C 284.49 221.75 300.34 213.42 294.00 209.00 Z"/>
</g>
<g fill="#CFECD9" fill-opacity="1.00" stroke="None">
<path d="
M 241.00 219.00 
C 243.19 216.34 247.28 212.23 250.00 210.00
C 246.74 212.28 243.32 215.69 241.00 219.00 Z"/>
</g>
<g fill="#43A049" fill-opacity="1.00" stroke="None">
<path d="
M 241.00 304.00 
C 277.23 349.44 357.81 325.59 359.00 266.00
C 359.06 263.03 359.16 259.97 359.00 257.00
C 358.30 244.01 353.77 231.44 346.00 221.00
C 343.47 218.10 339.78 214.59 337.00 212.00
C 336.41 211.64 335.55 211.51 335.00 211.00
C 348.10 227.43 348.90 254.77 341.31 273.31 C 333.71 291.84 319.48 304.22 301.07 311.07 C 282.67 317.93 256.31 313.91 241.00 304.00 Z"/>
</g>
<g fill="#93D69A" fill-opacity="1.00" stroke="None">
<path d="
M 346.00 221.00 
C 343.69 217.89 340.40 214.07 337.00 212.00
C 339.78 214.59 343.47 218.10 346.00 221.00 Z"/>
</g>
<g fill="#85D589" fill-opacity="1.00" stroke="None">
<path d="
M 265.00 218.00 
C 260.13 216.05 254.21 225.91 250.75 228.75 C 247.29 231.59 242.42 240.40 241.93 244.93 C 241.43 249.46 234.36 260.39 241.33 263.67 C 248.30 266.95 248.75 252.33 250.02 248.03 C 251.29 243.72 255.79 234.83 258.75 231.75 C 261.72 228.67 271.69 220.68 265.00 218.00 Z"/>
</g>
<g fill="#F7FDFC" fill-opacity="1.00" stroke="None">
<path d="
M 273.00 240.00 
C 270.61 253.35 273.00 269.40 273.00 283.00
C 273.00 283.91 272.81 285.11 273.00 286.00
C 281.29 287.52 292.64 278.95 298.70 273.70 C 304.75 268.44 321.37 262.20 318.00 252.00
C 307.97 244.77 280.20 217.23 273.00 240.00 Z"/>
</g>
<g fill="#69CA70" fill-opacity="1.00" stroke="None">
<path d="
M 273.00 283.00 
C 273.00 269.40 270.61 253.35 273.00 240.00
C 269.60 250.76 270.59 272.01 273.00 283.00 Z"/>
</g>
<g fill="#808AF1" fill-opacity="1.00" stroke="None">
<path d="
M 126.00 260.00 
C 126.49 257.25 126.47 252.75 126.00 250.00
C 125.78 242.15 114.96 241.11 111.00 247.00
C 111.20 251.62 111.20 258.38 111.00 263.00
C 116.44 269.20 123.59 267.61 126.00 260.00 Z"/>
</g>
<g fill="#5E6BEF" fill-opacity="1.00" stroke="None">
<path d="
M 126.00 260.00 
C 127.08 256.60 127.05 253.45 126.00 250.00
C 126.47 252.75 126.49 257.25 126.00 260.00 Z"/>
</g>
<g fill="#DBDDFB" fill-opacity="1.00" stroke="None">
<path d="
M 273.00 286.00 
C 273.21 286.99 274.38 288.18 275.00 289.00
C 275.96 290.01 278.95 292.68 280.00 293.00
C 292.83 295.84 300.00 282.29 310.30 277.30 C 320.60 272.32 330.32 260.89 318.00 252.00
C 321.37 262.20 304.75 268.44 298.70 273.70 C 292.64 278.95 281.29 287.52 273.00 286.00 Z"/>
</g>
<g fill="#85D589" fill-opacity="1.00" stroke="None">
<path d="
M 226.00 269.00 
C 225.95 265.68 227.11 260.18 227.00 256.00
C 226.69 259.63 225.51 264.58 226.00 269.00 Z"/>
</g>
<g fill="#CFECD9" fill-opacity="1.00" stroke="None">
<path d="
M 359.00 266.00 
C 359.36 263.02 359.50 260.09 359.00 257.00
C 359.16 259.97 359.06 263.03 359.00 266.00 Z"/>
</g>
<g fill="#808AF1" fill-opacity="1.00" stroke="None">
<path d="
M 126.00 338.00 
C 127.38 330.32 126.11 320.81 126.00 313.00 C 125.89 305.19 127.68 295.58 126.00 288.00
C 121.12 274.78 109.33 285.32 111.00 296.00 C 112.67 306.68 112.22 320.28 111.00 331.00 C 109.78 341.72 122.00 350.65 126.00 338.00 Z"/>
</g>
<g fill="#5E6BEF" fill-opacity="1.00" stroke="None">
<path d="
M 126.00 338.00 
C 128.20 331.05 127.14 320.84 127.00 313.00 C 126.86 305.16 128.56 294.94 126.00 288.00
C 127.68 295.58 125.89 305.19 126.00 313.00 C 126.11 320.81 127.38 330.32 126.00 338.00 Z"/>
</g>
<g fill="#CFECD9" fill-opacity="1.00" stroke="None">
<path d="
M 280.00 293.00 
C 278.95 292.68 275.96 290.01 275.00 289.00
C 276.48 290.96 277.50 292.45 280.00 293.00 Z"/>
</g>
<g fill="#C0C2F6" fill-opacity="1.00" stroke="None">
<path d="
M 162.00 373.00 
C 183.50 375.87 206.30 371.94 228.00 373.00 C 249.70 374.06 272.31 373.04 294.00 373.00 C 315.69 372.96 338.52 374.16 360.00 373.00 C 381.48 371.84 404.66 376.51 425.00 372.00
C 396.13 374.96 366.03 371.11 337.00 372.00 C 307.97 372.89 277.98 372.59 249.00 372.00 C 220.02 371.41 190.10 374.04 162.00 373.00 Z"/>
</g>
<g fill="#3B47E6" fill-opacity="0.50" stroke="None">
<path d="
M 483.00 391.00 
C 484.36 388.62 485.09 386.72 486.00 384.00
C 485.06 385.98 484.06 388.93 483.00 391.00 Z"/>
</g>
<g fill="#525DEF" fill-opacity="0.52" stroke="None">
<path d="
M 471.00 405.00 
C 476.56 400.94 479.59 396.98 483.00 391.00
C 480.88 395.15 475.04 401.90 471.00 405.00 Z"/>
</g>
<g fill="#3B4BE7" fill-opacity="1.00" stroke="None">
<path d="
M 237.00 399.00 
C 268.73 395.07 302.09 401.14 334.00 399.00 C 365.91 396.86 398.07 400.73 430.00 399.00
C 409.62 398.13 387.19 397.18 366.00 398.00 C 344.81 398.82 322.03 396.40 301.00 398.00 C 279.97 399.60 256.85 394.08 237.00 399.00 Z"/>
</g>
<g fill="#3B4BE7" fill-opacity="0.55" stroke="None">
<path d="
M 456.00 413.00 
C 461.85 412.14 466.55 408.25 471.00 405.00
C 467.89 407.38 459.45 412.07 456.00 413.00 Z"/>
</g>
<g fill="#3B4BE7" fill-opacity="0.82" stroke="None">
<path d="
M 245.00 418.00 
C 258.01 408.33 277.69 415.79 294.00 414.00 C 310.31 412.21 330.03 414.91 347.00 414.00 C 363.97 413.09 382.84 414.64 400.00 414.00 C 417.16 413.36 435.58 415.24 452.00 413.00
C 434.51 413.00 416.43 412.81 399.00 413.00 C 381.57 413.19 363.21 412.49 346.00 413.00 C 328.79 413.51 309.70 411.83 293.00 413.00 C 276.30 414.17 257.86 408.15 245.00 418.00 Z"/>
</g>
<g fill="#3B4BE7" fill-opacity="0.47" stroke="None">
<path d="
M 236.00 425.00 
C 239.00 422.75 242.10 420.16 245.00 418.00
C 241.98 420.32 238.91 422.06 236.00 425.00 Z"/>
</g>
<g fill="#3B4BE7" fill-opacity="0.57" stroke="None">
<path d="
M 212.00 442.00 
C 212.36 441.78 213.00 442.00 213.00 442.00
C 219.07 438.23 224.37 433.10 230.00 429.00
C 223.70 432.58 217.84 437.61 212.00 442.00 Z"/>
</g>
<g fill="#525DEF" fill-opacity="0.40" stroke="None">
<path d="
M 205.00 447.00 
C 204.55 447.54 204.40 448.52 204.00 449.00
C 207.05 446.78 210.08 444.20 213.00 442.00
C 213.00 442.00 212.36 441.78 212.00 442.00
C 209.54 443.53 207.38 445.27 205.00 447.00 Z"/>
</g>
<g fill="#3B47E6" fill-opacity="0.49" stroke="None">
<path d="
M 195.00 455.00 
C 197.69 453.04 201.08 451.13 204.00 449.00
C 204.40 448.52 204.55 447.54 205.00 447.00
C 201.56 449.50 198.28 452.56 195.00 455.00 Z"/>
</g>
<g fill="#3B47E6" fill-opacity="0.68" stroke="None">
<path d="
M 171.00 473.00 
C 171.13 472.96 171.00 472.00 171.00 472.00
C 158.64 472.46 162.79 460.72 162.00 452.00
C 162.00 452.00 161.00 451.96 161.00 452.00
C 161.00 459.67 158.40 475.48 171.00 473.00 Z"/>
</g>
<g fill="#3B4BE7" fill-opacity="0.45" stroke="None">
<path d="
M 171.00 472.00 
C 171.00 472.00 171.13 472.96 171.00 473.00
C 179.47 470.63 188.09 460.04 195.00 455.00
C 187.25 460.77 178.34 465.59 171.00 472.00 Z"/>
</g>
</svg>